<svg width="22" height="21" viewBox="0 0 22 21" fill="none" xmlns="http://www.w3.org/2000/svg">
<path d="M11.2227 8.99916V12.598H17.5902C17.3307 14.1428 15.6648 17.1268 11.2227 17.1268C7.39436 17.1268 4.26673 14.1599 4.26673 10.4993C4.26673 6.83878 7.39366 3.87188 11.2227 3.87188C13.4034 3.87188 14.8652 4.73681 15.6978 5.48887L18.7412 2.74444C16.7871 1.03884 14.2549 0 11.2227 0C5.01935 0 0 4.69284 0 10.5C0 16.3072 5.01935 21 11.2227 21C17.6996 21 22 16.7409 22 10.7395C22 10.0492 21.9193 9.52284 21.8211 8.99981L11.2227 8.99916Z" fill="url(#paint0_linear_64_344)"/>
<defs>
<linearGradient id="paint0_linear_64_344" x1="11" y1="0" x2="11" y2="21" gradientUnits="userSpaceOnUse">
<stop offset="0.932692" stop-color="white"/>
</linearGradient>
</defs>
</svg>
